# xmcd
#
# Track frame offsets:
#       150
#       9113
#       18568
#       28212
#       39132
#       51831
#       64657
#       72737
#       81314
#       90367
#
# Disc length: 1337 seconds
#
# Revision: 1
# Processed by: cddbd v1.5.2PL0 Copyright (c) Steve Scherf et al.
# Submitted via: FreeDbEdit v0.1
#
DISCID=7705370a
DTITLE=The Stanley Brothers - Lord I'm Coming Home
DYEAR=2003
DGENRE=Bluegrass
TTITLE0=If I Could Hear My Mother Pray Again
TTITLE1=Lord I'm Coming Home
TTITLE2=We Shall Meet Someday
TTITLE3=Old Daniel Prayed
TTITLE4=Precious Memories
TTITLE5=Rock of Ages
TTITLE6=God's Highway
TTITLE7=This World Is Not My Home
TTITLE8=Mother's Footsteps Guide Me On
TTITLE9=I'm Ready to Go
EXTD=Compilation from 15 original albums, released by\nKing Records in 2003.  Seems to be 1 in a\nseries of 5 CDs.
EXTT0=
EXTT1=
EXTT2=
EXTT3=
EXTT4=
EXTT5=
EXTT6=
EXTT7=
EXTT8=
EXTT9=
PLAYORDER=
